HIERARCHY
ROOT Hips
{
    OFFSET 0.0 0.0 0.0
    CHANNELS 6 Xposition Yposition Zposition Zrotation Xrotation Yrotation
    JOINT Spine
    {
        OFFSET 0.0 5.0 0.0
        CHANNELS 3 Zrotation Xrotation Yrotation
        JOINT Chest
        {
            OFFSET 0.0 5.0 0.0
            CHANNELS 3 Zrotation Xrotation Yrotation
            JOINT Neck
            {
                OFFSET 0.0 8.0 0.0
                CHANNELS 3 Zrotation Xrotation Yrotation
                JOINT Head
                {
                    OFFSET 0.0 5.0 0.0
                    CHANNELS 3 Zrotation Xrotation Yrotation
                    End Site
                    {
                        OFFSET 0.0 3.0 0.0
                    }
                }
            }
            JOINT LeftShoulder
            {
                OFFSET -5.0 0.0 0.0
                CHANNELS 3 Zrotation Xrotation Yrotation
                JOINT LeftArm
                {
                    OFFSET 0.0 -10.0 0.0
                    CHANNELS 3 Zrotation Xrotation Yrotation
                    JOINT LeftForeArm
                    {
                        OFFSET 0.0 -10.0 0.0
                        CHANNELS 3 Zrotation Xrotation Yrotation
                        End Site
                        {
                            OFFSET 0.0 -3.0 0.0
                        }
                    }
                }
            }
        }
    }
}

MOTION
Frames: 22
Frame Time: 0.033333
970.000000 442.938926 123.106050 0.000000 0.000000 0.000000 0.000000 0.000000 0.000000 29.678605 29.111201 0.000000 180.000000 -0.770889 0.000000 29.744881 6.014917 -0.000000 150.255119 -12.496250 30.000000 19.983107 16.900258 0.000000 18.000000 -0.510995 0.000000
1354.522934 467.411410 133.989113 0.000000 0.000000 0.000000 0.000000 0.000000 0.000000 150.622570 0.591509 4.973798 -29.377430 12.879488 4.973798 140.176400 -3.696475 3.759997 -12.221629 -0.275731 29.763441 132.794256 0.357229 -3.759997 -2.626015 0.045153 0.313953
969.997807 442.887864 127.876759 0.000000 0.000000 0.000000 0.000000 0.000000 0.000000 31.061399 -23.615092 9.635073 180.000000 11.957330 9.635073 30.285790 1.266653 7.460697 149.714210 -8.498761 29.057495 19.151579 11.364936 -7.460697 18.000000 0.042296 0.626666
1246.736984 514.278152 125.227984 0.000000 0.000000 0.000000 0.000000 0.000000 0.000000 143.557092 -9.513764 13.690942 -36.442908 3.568381 13.690942 133.761037 -1.028724 11.043737 -156.950665 -5.341860 27.893295 0.000000 0.000000 0.000000 1.928484 0.426095 0.936907
1245.221100 458.637464 135.737316 0.000000 0.000000 0.000000 0.000000 0.000000 0.000000 160.701064 10.279207 16.886559 -19.298936 -24.913737 16.886559 140.193827 1.406674 14.452610 -157.554825 -5.920230 26.289200 29.500467 5.292856 -14.452610 -15.049953 -0.529286 1.243449
1257.365570 418.514181 94.894027 0.000000 0.000000 0.000000 0.000000 0.000000 0.000000 -143.710676 9.844511 19.021130 36.289324 0.229652 19.021130 163.220413 5.053440 17.633558 11.688054 -3.627271 24.270510 152.038385 3.576624 -17.633558 -2.339948 -0.074857 1.545085
1275.099564 408.163741 84.000597 0.000000 0.000000 0.000000 0.000000 0.000000 0.000000 -132.929531 13.221835 19.960535 47.070469 -4.741801 19.960535 173.491912 0.289635 20.536413 -160.709681 -5.346468 21.869059 33.138793 6.400611 -20.536413 -14.686121 -0.640061 1.840623
1290.611115 384.880857 92.857077 0.000000 0.000000 0.000000 0.000000 0.000000 0.000000 -132.705235 7.981700 19.645745 47.294765 4.444630 19.645745 -173.778854 -4.826886 23.115397 20.496835 0.806884 19.122720 -161.220290 -4.342570 -23.115397 1.723235 0.395327 2.128896
1302.817154 380.305352 98.214176 0.000000 0.000000 0.000000 0.000000 0.000000 0.000000 -131.493915 1.840233 18.096541 48.506085 -5.260552 18.096541 -165.393697 -0.662216 25.329838 23.154815 -1.899689 16.074804 -178.200316 3.603886 -25.329838 0.138141 -0.327604 2.408768
1304.997711 379.563582 96.944369 0.000000 0.000000 0.000000 0.000000 0.000000 0.000000 -126.727972 -5.278129 15.410265 53.272028 -0.687917 15.410265 -160.219593 -2.639847 27.144812 28.448880 -0.933194 12.773379 -174.368770 1.425192 -27.144812 0.079526 -0.168488 2.679134
1311.668472 386.890390 80.592715 0.000000 0.000000 0.000000 0.000000 0.000000 0.000000 -122.308728 -6.712370 11.755705 57.691272 10.633773 11.755705 -158.801130 -5.953221 28.531695 150.942637 0.723237 9.270510 -154.878332 -4.330511 -28.531695 2.695409 0.555323 2.938926
1305.131836 395.180186 70.954032 0.000000 0.000000 0.000000 0.000000 0.000000 0.000000 -125.112810 -20.302595 7.362491 54.887190 14.238630 7.362491 -146.487292 0.761415 29.468618 -175.167369 8.615767 5.621439 -159.224034 -4.855955 -29.468618 1.782042 0.416887 3.187120
1296.320457 392.734526 65.784545 0.000000 0.000000 0.000000 0.000000 0.000000 0.000000 -131.035750 1.595921 2.506665 48.964250 8.922353 2.506665 -128.969563 0.905297 29.940802 38.856147 3.758643 1.883716 -134.776850 -0.567549 -29.940802 3.458429 0.071565 3.422736
1306.963577 386.612041 78.472718 0.000000 0.000000 0.000000 0.000000 0.000000 0.000000 -124.469622 7.604713 -2.506665 55.530378 -7.374032 -2.506665 -109.994856 -2.524568 29.940802 37.691309 -3.068021 -1.883716 -118.274788 -2.028728 -29.940802 5.098336 0.156036 3.644843
969.892723 442.572198 61.511201 0.000000 0.000000 0.000000 0.000000 0.000000 0.000000 41.287575 4.673078 -7.362491 180.000000 -14.600867 -7.362491 30.974696 8.230322 29.468618 149.025304 -10.848988 -5.621439 15.072869 -1.392760 -29.468618 18.000000 0.192050 3.852566
969.876883 442.545207 62.339335 0.000000 0.000000 0.000000 0.000000 0.000000 0.000000 42.241956 10.145808 -11.755705 180.000000 -3.846007 -11.755705 30.826133 -5.168880 28.531695 149.173867 -4.542615 -9.270510 14.823070 7.182806 -28.531695 18.000000 -0.290006 4.045085
969.859960 442.518116 58.869275 0.000000 0.000000 0.000000 0.000000 0.000000 0.000000 43.199779 -30.512961 -15.410265 180.000000 4.511415 -15.410265 30.649504 -1.335073 27.144812 149.350496 0.810146 -12.773379 14.587557 5.916377 -27.144812 18.000000 0.072527 4.221640
969.841956 442.490926 50.125608 0.000000 0.000000 0.000000 0.000000 0.000000 0.000000 44.157210 25.293581 -18.096541 180.000000 -7.205066 -18.096541 30.446417 7.918525 25.329838 149.553583 -11.508230 -16.074804 14.366154 8.574955 -25.329838 18.000000 -0.154476 4.381533
969.822873 442.463637 49.966979 0.000000 0.000000 0.000000 0.000000 0.000000 0.000000 45.110117 -32.497989 -19.645745 180.000000 -3.667972 -19.645745 30.218633 12.489056 23.115397 149.781367 7.054231 -19.122720 14.158653 -2.813132 -23.115397 18.000000 -0.370821 4.524135
969.802712 442.436251 48.955370 0.000000 0.000000 0.000000 0.000000 0.000000 0.000000 46.054109 -16.595090 -19.960535 180.000000 -2.814806 -19.960535 29.968037 4.049933 20.536413 150.031963 2.882034 -21.869059 13.964823 -10.331801 -20.536413 18.000000 -0.166420 4.648882
1187.040939 541.658249 37.148248 0.000000 0.000000 0.000000 0.000000 0.000000 0.000000 82.806623 12.509990 -19.021130 -97.193377 -18.806091 -19.021130 45.395981 2.090260 17.633558 -156.144455 -2.945976 -24.270510 0.000000 0.000000 0.000000 0.000000 0.000000 0.000000
1182.242889 522.024286 66.913925 0.000000 0.000000 0.000000 0.000000 0.000000 0.000000 -105.721938 -2.783439 -16.886559 74.278062 2.727157 -16.886559 -155.708006 -2.627754 14.452610 -157.302521 -2.589087 -26.289200 0.000000 0.000000 0.000000 2.684983 0.242142 4.842916
